<svg width="704" height="691" viewBox="0 0 704 691" fill="none" xmlns="http://www.w3.org/2000/svg">
<path d="M247.861 414.73C250.773 418.584 254.496 421.747 257.625 424.404C258.666 425.289 259.642 426.118 260.5 426.897C262.252 428.489 263.462 429.83 263.886 431.019C264.089 431.589 264.103 432.103 263.921 432.596C263.734 433.099 263.323 433.635 262.574 434.2C238.117 452.677 203.37 469.425 176.626 482.315C168.993 485.994 162.011 489.359 156.107 492.36C148.458 496.248 140.44 501.065 132.911 505.588C128.955 507.964 125.133 510.26 121.572 512.297C87.0867 532.018 56.2099 555.474 21.179 612.404C19.1764 615.659 14.9172 618.326 10.8187 619.368C8.77551 619.888 6.82189 619.991 5.24863 619.595C3.69119 619.203 2.5244 618.331 1.95405 616.885C-0.803353 609.888 0.72241 601.075 3.52166 593.084C6.31298 585.116 10.3295 578.078 12.4097 574.697C39.7123 530.328 73.3685 509.819 114.047 485.03C118.571 482.273 123.182 479.463 127.881 476.561C146.916 464.807 164.281 450.968 181.321 436.722C185.475 433.248 189.61 429.752 193.744 426.255C206.575 415.401 219.407 404.548 232.84 394.399C233.584 393.837 234.21 393.603 234.747 393.58C235.274 393.558 235.78 393.738 236.294 394.131C237.36 394.945 238.362 396.589 239.454 398.817C239.982 399.895 240.525 401.097 241.102 402.373C242.863 406.271 244.937 410.86 247.861 414.73Z" fill="#49C5B6" stroke="#49C5B6"/>
<path d="M193.26 232.914L193.26 232.914C192.596 231.347 193.204 229.524 194.871 227.505C196.523 225.503 199.108 223.445 202.054 221.497C207.938 217.605 215.134 214.232 218.791 212.681C247.148 200.657 267.945 195.489 286.314 195.037C304.678 194.586 320.659 198.846 339.399 205.754C372.677 218.021 399.322 239.961 422.053 258.683L422.328 258.909C424.381 260.6 426.402 262.265 428.394 263.892C453.776 284.641 473.094 298.312 494.176 298.733C504.193 298.933 515.754 297.793 529.671 290.856C543.577 283.924 559.805 271.219 579.193 248.342L578.812 248.019L579.193 248.342C581.746 245.33 585.403 241.937 589.148 239.94C592.91 237.933 596.585 237.413 599.386 239.786C600.762 240.953 601.421 242.745 601.514 244.958C601.606 247.173 601.127 249.75 600.289 252.388C598.613 257.666 595.545 263.059 593.014 266.045C572.89 289.791 556.328 305.091 540.658 314.374C525.004 323.648 510.22 326.929 493.62 326.598C461.415 325.955 434.829 305.15 410.754 285.471C408.752 283.833 406.754 282.193 404.759 280.554L404.731 280.531C381.458 261.411 358.385 242.458 329.759 231.905C314.756 226.374 300.3 221.713 283.237 221.141C266.169 220.569 246.531 224.088 221.142 234.855C217.544 236.38 211.256 237.654 205.485 237.631C202.601 237.62 199.881 237.285 197.706 236.516C195.528 235.747 193.962 234.569 193.26 232.914Z" fill="#49C5B6" stroke="#49C5B6"/>
<path d="M487.725 220.834C475.498 239.675 452.378 246.23 436.119 235.68C419.86 225.129 416.429 201.343 428.655 182.502C440.881 163.661 464.002 157.106 480.261 167.656C496.52 178.207 499.951 201.993 487.725 220.834Z" fill="#49C5B6" stroke="#49C5B6"/>
<path d="M314.396 335.984L314.396 335.984C313.088 337.101 310.492 338.917 307.888 340.571C305.295 342.217 302.62 343.75 301.163 344.266L300.996 343.795L301.163 344.266C299.083 345.003 296.957 345.958 294.868 346.915C294.654 347.013 294.441 347.111 294.229 347.209C292.369 348.062 290.544 348.9 288.845 349.547M314.396 335.984L288.667 349.08M314.396 335.984C328.856 323.631 338.083 313.861 344.449 303.75C350.819 293.633 354.306 283.205 357.332 269.569C358.19 265.705 359.7 263.711 361.479 262.896C363.269 262.076 365.497 262.371 367.966 263.477C372.906 265.687 378.403 270.958 382.187 275.416C385.969 279.872 389.441 284.558 391.852 289.102C394.259 293.64 395.579 297.978 395.157 301.782C391.188 315.425 379.165 329.494 364.549 341.465C349.932 353.438 332.799 363.251 318.754 368.387L318.926 368.857L318.754 368.387C316.994 369.031 309.56 372.412 303.338 376.189C300.233 378.074 297.383 380.085 295.696 381.928C294.858 382.843 294.251 383.776 294.097 384.681C294.018 385.145 294.059 385.606 294.252 386.04C294.443 386.472 294.771 386.845 295.214 387.162C295.84 387.61 296.844 388.031 298.103 388.44C299.374 388.853 300.954 389.269 302.768 389.691C306.396 390.536 310.997 391.416 316.009 392.359C316.549 392.461 317.094 392.563 317.644 392.666C327.299 394.479 338.231 396.532 346.752 399.029C355.779 401.674 365.875 404.932 374.773 408.277C383.687 411.627 391.35 415.047 395.549 418.006C396.835 418.912 398.308 419.849 399.863 420.839C400.885 421.489 401.944 422.163 403.008 422.865C405.712 424.649 408.505 426.651 411.035 429.04C416.083 433.809 420.079 440.12 420.162 449.333C420.315 466.316 407.033 476.637 395.748 483.005L395.994 483.44L395.748 483.005C384.289 489.473 368.973 495.131 353.58 500.818L353.579 500.818C352.88 501.077 352.183 501.335 351.484 501.593L351.483 501.593C350.241 502.053 348.994 502.513 347.745 502.974C315.099 515.02 280.477 527.796 258.48 551.735C255.789 554.663 253.177 556.933 250.562 557.835C249.267 558.281 247.978 558.39 246.672 558.08C245.363 557.77 244.003 557.03 242.583 555.726L242.245 556.094L242.583 555.726C241.299 554.546 240.829 552.241 241.066 549.143C241.3 546.084 242.21 542.416 243.48 538.709C244.748 535.005 246.366 531.286 248.002 528.129C249.642 524.963 251.282 522.398 252.585 520.98L252.217 520.642L252.585 520.98C274.498 497.132 296.627 490.135 320.703 482.521C327.515 480.367 334.484 478.164 341.647 475.515L342.295 475.276L342.295 475.276L342.362 475.251C359.093 469.065 372.577 464.079 382.052 458.732L381.806 458.297L382.052 458.732C386.764 456.073 389.536 453.828 391.026 452.078C392.133 450.78 392.289 450.076 392.294 449.675L392.296 449.481L392.167 449.336C392.098 449.259 392.002 449.159 391.871 449.038L391.871 449.038C390.814 448.061 388.445 446.587 383.841 445.01L383.679 445.483L383.841 445.01C374.512 441.816 361.283 439.857 345.176 437.53L344.769 437.471L344.697 437.966L344.768 437.471C329.472 435.261 312.092 432.749 296.673 428.199C281.385 423.688 265.478 416.483 255.503 403.121L253.195 398.384M314.396 335.984L253.195 398.384M288.845 349.547L288.667 349.08M288.845 349.547C288.845 349.547 288.845 349.547 288.845 349.547L288.667 349.08M288.845 349.547C282.378 352.012 275.723 354.846 269.99 358.436L269.725 358.012M288.667 349.08C282.192 351.548 275.5 354.396 269.725 358.012M269.725 358.012L269.99 358.436C264.26 362.023 258.421 366.995 254.903 374.201L254.903 374.201C251.218 381.749 250.915 390.007 253.195 398.384M269.725 358.012L253.195 398.384" fill="#49C5B6" stroke="#49C5B6"/>
<path d="M49.5469 470.785C33.8919 432.134 25.2709 389.881 25.2709 345.615C25.2709 161.365 174.636 12 358.886 12C543.137 12 692.502 161.365 692.502 345.615C692.502 529.866 543.137 679.231 358.886 679.231C263.264 679.231 177.038 639.001 116.211 574.544" stroke="#49C5B6" stroke-width="23" stroke-linecap="round"/>
</svg>
