<svg width="704" height="691" viewBox="0 0 704 691" fill="none" xmlns="http://www.w3.org/2000/svg">
<path fill-rule="evenodd" clip-rule="evenodd" d="M248.26 414.429C255.947 424.603 269.237 429.793 262.876 434.599C231.391 458.385 182.874 479.315 156.334 492.806C144.677 498.731 132.199 506.795 121.82 512.731C87.3989 532.415 56.5869 555.815 21.6049 612.666C17.4269 619.456 4.05389 623.574 1.48889 617.068C-4.16411 602.724 7.8059 581.225 11.9839 574.435C42.3979 525.01 80.7019 505.107 127.618 476.136C165.625 452.666 196.991 420.857 232.539 394C238.9 389.194 240.574 404.255 248.26 414.429Z" fill="#49C5B6"/>
<path fill-rule="evenodd" clip-rule="evenodd" d="M329.586 232.374C299.599 221.32 272.013 213.826 221.337 235.315C213.997 238.427 195.912 240.449 192.8 233.109C189.687 225.769 211.256 215.334 218.596 212.221C275.371 188.146 302.045 191.452 339.572 205.285C372.941 217.586 399.648 239.582 422.371 258.297C424.519 260.066 426.631 261.806 428.71 263.505C454.117 284.274 473.304 297.816 494.186 298.233C514.105 298.631 540.091 293.707 578.812 248.019C583.966 241.937 593.627 234.251 599.709 239.405C605.791 244.56 598.55 260.287 593.396 266.368C553.119 313.893 526.979 327.764 493.61 327.098C461.206 326.451 434.49 305.519 410.438 285.858C408.435 284.22 406.437 282.579 404.442 280.94C381.148 261.804 358.132 242.897 329.586 232.374Z" fill="#49C5B6"/>
<path d="M435.847 236.099C452.39 246.834 475.804 240.122 488.144 221.106C500.484 202.09 497.076 177.972 480.533 167.237C463.99 156.502 440.575 163.214 428.236 182.23C415.896 201.246 419.303 225.364 435.847 236.099Z" fill="#49C5B6"/>
<path d="M395.649 301.88C396.555 293.959 390.156 284.032 382.568 275.092C374.98 266.153 360.338 253.717 356.844 269.461C350.804 296.677 342.96 310.924 314.071 335.604C311.511 337.79 303.787 342.806 300.996 343.795C296.79 345.285 292.415 347.652 288.667 349.08C282.192 351.548 275.5 354.396 269.725 358.012C263.952 361.626 258.028 366.66 254.454 373.982C250.699 381.672 250.406 390.075 252.725 398.561L255.074 403.382C265.146 416.9 281.197 424.154 296.532 428.679C311.991 433.241 329.408 435.757 344.697 437.966L345.105 438.025C361.23 440.354 374.405 442.308 383.679 445.483C388.254 447.05 390.548 448.496 391.532 449.405C391.651 449.515 391.736 449.604 391.794 449.669C391.791 449.908 391.712 450.503 390.646 451.754C389.21 453.44 386.494 455.651 381.806 458.297C372.362 463.626 358.9 468.603 342.122 474.807L341.474 475.046C309.102 487.015 280.438 489.929 252.217 520.642C246.823 526.512 236.374 550.7 242.245 556.094C248.115 561.488 253.454 557.943 258.848 552.073C281.588 527.326 317.902 514.542 351.657 502.062C352.356 501.804 353.054 501.546 353.753 501.287C369.134 495.605 384.492 489.932 395.994 483.44C407.294 477.064 420.818 466.613 420.662 449.328C420.493 430.566 404.35 423.597 395.837 417.597C387.324 411.597 364.964 403.844 346.893 398.549C328.822 393.254 299.982 389.958 295.505 386.755C289.307 382.321 315.476 370.119 318.926 368.857C347.134 358.541 387.651 329.486 395.649 301.88Z" fill="#49C5B6"/>
<path d="M49.547 470.785C33.892 432.134 25.271 389.881 25.271 345.615C25.271 161.365 174.636 12 358.886 12C543.137 12 692.502 161.365 692.502 345.615C692.502 529.866 543.137 679.231 358.886 679.231C263.264 679.231 177.038 639.001 116.211 574.544" stroke="#49C5B6" stroke-width="23" stroke-linecap="round"/>
</svg>
